<svg width="35" height="32" viewBox="0 0 35 32" fill="none" xmlns="http://www.w3.org/2000/svg">
<path d="M3.5 3.5H8.75L12.25 0H22.75L26.25 3.5H31.5C32.4283 3.5 33.3185 3.86875 33.9749 4.52513C34.6312 5.1815 35 6.07174 35 7V28C35 28.9283 34.6312 29.8185 33.9749 30.4749C33.3185 31.1313 32.4283 31.5 31.5 31.5H3.5C2.57174 31.5 1.6815 31.1313 1.02513 30.4749C0.368749 29.8185 0 28.9283 0 28V7C0 6.07174 0.368749 5.1815 1.02513 4.52513C1.6815 3.86875 2.57174 3.5 3.5 3.5ZM17.5 8.75C15.1794 8.75 12.9538 9.67187 11.3128 11.3128C9.67187 12.9538 8.75 15.1794 8.75 17.5C8.75 19.8206 9.67187 22.0462 11.3128 23.6872C12.9538 25.3281 15.1794 26.25 17.5 26.25C19.8206 26.25 22.0462 25.3281 23.6872 23.6872C25.3281 22.0462 26.25 19.8206 26.25 17.5C26.25 15.1794 25.3281 12.9538 23.6872 11.3128C22.0462 9.67187 19.8206 8.75 17.5 8.75ZM17.5 12.25C18.8924 12.25 20.2277 12.8031 21.2123 13.7877C22.1969 14.7723 22.75 16.1076 22.75 17.5C22.75 18.8924 22.1969 20.2277 21.2123 21.2123C20.2277 22.1969 18.8924 22.75 17.5 22.75C16.1076 22.75 14.7723 22.1969 13.7877 21.2123C12.8031 20.2277 12.25 18.8924 12.25 17.5C12.25 16.1076 12.8031 14.7723 13.7877 13.7877C14.7723 12.8031 16.1076 12.25 17.5 12.25Z" fill="black"/>
</svg>
