<svg width="42" height="42" viewBox="0 0 42 42" fill="none" xmlns="http://www.w3.org/2000/svg">
<path fill-rule="evenodd" clip-rule="evenodd" d="M17.0625 1.3125C12.5422 1.3125 9.21725 1.463 6.9475 1.62488C4.06 1.83138 1.83138 4.05912 1.62488 6.94837C1.463 9.21725 1.3125 12.5422 1.3125 17.0625C1.3125 21.5828 1.463 24.9077 1.62488 27.1775C1.82613 29.9897 3.94363 32.1764 6.72175 32.48C6.61101 29.9674 6.55792 27.4526 6.5625 24.9375C6.5625 20.3586 6.71475 16.9715 6.88188 14.6361C7.18112 10.4449 10.4449 7.18112 14.6361 6.88188C16.9715 6.71562 20.3586 6.5625 24.9375 6.5625C27.9562 6.5625 30.4561 6.629 32.48 6.72175C32.1764 3.94363 29.9897 1.82613 27.1775 1.62488C24.9077 1.463 21.5828 1.3125 17.0625 1.3125ZM24.9375 9.1875C20.4172 9.1875 17.0923 9.338 14.8225 9.49988C11.935 9.70638 9.70638 11.9341 9.49988 14.8234C9.338 17.0922 9.1875 20.4172 9.1875 24.9375C9.1875 29.4578 9.338 32.7828 9.49988 35.0525C9.70638 37.94 11.9341 40.1686 14.8234 40.3751C17.0922 40.537 20.4172 40.6875 24.9375 40.6875C29.4578 40.6875 32.7828 40.537 35.0525 40.3751C37.94 40.1686 40.1686 37.9409 40.3751 35.0516C40.537 32.7827 40.6875 29.4578 40.6875 24.9375C40.6875 20.4172 40.537 17.0923 40.3751 14.8225C40.1686 11.935 37.9409 9.70638 35.0516 9.49988C32.7827 9.338 29.4578 9.1875 24.9375 9.1875ZM28.4375 17.9375C28.4375 17.0092 28.8062 16.119 29.4626 15.4626C30.119 14.8062 31.0092 14.4375 31.9375 14.4375C32.8658 14.4375 33.756 14.8062 34.4124 15.4626C35.0687 16.119 35.4375 17.0092 35.4375 17.9375C35.4375 18.8658 35.0687 19.756 34.4124 20.4124C33.756 21.0688 32.8658 21.4375 31.9375 21.4375C31.0092 21.4375 30.119 21.0688 29.4626 20.4124C28.8062 19.756 28.4375 18.8658 28.4375 17.9375ZM37.9899 30.0912C37.0593 29.2412 36.1073 28.4149 35.1348 27.6133C33.8284 26.544 32.0749 26.3751 30.6408 27.3315C29.7098 27.9527 28.4602 28.8759 26.8529 30.2374C24.4107 27.9125 22.7054 26.4276 21.5679 25.4966C20.2606 24.4282 18.5071 24.2585 17.073 25.2149C15.8847 26.0076 14.1741 27.2948 11.865 29.3589C11.9228 31.6444 12.019 33.4679 12.1188 34.8652C12.2325 36.4516 13.4243 37.6434 15.0106 37.7563C17.213 37.9137 20.475 38.0625 24.9375 38.0625C29.4 38.0625 32.662 37.9137 34.8652 37.7563C36.4516 37.6425 37.6434 36.4516 37.7563 34.8652C37.8455 33.6201 37.9313 32.0372 37.9899 30.0912Z" fill="black"/>
</svg>
