<svg width="22" height="21" viewBox="0 0 22 21" fill="none" xmlns="http://www.w3.org/2000/svg">
<mask id="path-1-inside-1_91_816" fill="white">
<path d="M0.826086 0C0.606995 0 0.396876 0.10261 0.241955 0.285259C0.0870338 0.467907 0 0.715631 0 0.973934V9.4147C0 10.7062 0.435167 11.9448 1.20977 12.8581C1.98438 13.7713 3.03497 14.2844 4.13042 14.2844H19.1795L15.0821 19.1151C14.9424 19.2801 14.8575 19.4989 14.843 19.7314C14.8284 19.964 14.8851 20.195 15.0028 20.3825L15.0821 20.4916C15.222 20.6569 15.4077 20.7574 15.6052 20.7748C15.8028 20.7922 15.999 20.7253 16.1582 20.5864L16.2507 20.4916L21.758 13.9987C21.8979 13.8338 21.9829 13.6152 21.9977 13.3826C22.0125 13.15 21.9559 12.9189 21.8384 12.7313L21.758 12.6222L16.2507 6.12929C16.1031 5.95664 15.9058 5.85595 15.698 5.84732C15.4902 5.83869 15.2873 5.92276 15.1297 6.08275C14.9722 6.24274 14.8717 6.46688 14.8481 6.71043C14.8246 6.95399 14.8798 7.19905 15.0028 7.3967L15.0821 7.50578L19.1795 12.3365H4.12822C3.50045 12.3363 2.89614 12.0551 2.43737 11.5499C1.9786 11.0447 1.69954 10.3531 1.65658 9.61468L1.64997 9.4147V0.973934C1.64997 0.715631 1.56293 0.467907 1.40801 0.285259C1.25309 0.10261 1.04297 0 0.823881 0"/>
</mask>
<path d="M0.826086 0C0.606995 0 0.396876 0.10261 0.241955 0.285259C0.0870338 0.467907 0 0.715631 0 0.973934V9.4147C0 10.7062 0.435167 11.9448 1.20977 12.8581C1.98438 13.7713 3.03497 14.2844 4.13042 14.2844H19.1795L15.0821 19.1151C14.9424 19.2801 14.8575 19.4989 14.843 19.7314C14.8284 19.964 14.8851 20.195 15.0028 20.3825L15.0821 20.4916C15.222 20.6569 15.4077 20.7574 15.6052 20.7748C15.8028 20.7922 15.999 20.7253 16.1582 20.5864L16.2507 20.4916L21.758 13.9987C21.8979 13.8338 21.9829 13.6152 21.9977 13.3826C22.0125 13.15 21.9559 12.9189 21.8384 12.7313L21.758 12.6222L16.2507 6.12929C16.1031 5.95664 15.9058 5.85595 15.698 5.84732C15.4902 5.83869 15.2873 5.92276 15.1297 6.08275C14.9722 6.24274 14.8717 6.46688 14.8481 6.71043C14.8246 6.95399 14.8798 7.19905 15.0028 7.3967L15.0821 7.50578L19.1795 12.3365H4.12822C3.50045 12.3363 2.89614 12.0551 2.43737 11.5499C1.9786 11.0447 1.69954 10.3531 1.65658 9.61468L1.64997 9.4147V0.973934C1.64997 0.715631 1.56293 0.467907 1.40801 0.285259C1.25309 0.10261 1.04297 0 0.823881 0" fill="#6B7280"/>
<path d="M19.1795 14.2844V13.2844H21.339L19.9421 14.9312L19.1795 14.2844ZM15.0821 19.1151L14.3189 18.469L14.3195 18.4682L15.0821 19.1151ZM15.0028 20.3825L14.194 20.9705L14.174 20.943L14.1559 20.9142L15.0028 20.3825ZM15.0821 20.4916L14.3189 21.1377L14.295 21.1095L14.2733 21.0796L15.0821 20.4916ZM16.1582 20.5864L16.8739 21.2848L16.8459 21.3135L16.8157 21.3398L16.1582 20.5864ZM16.2507 20.4916L17.0134 21.1384L16.9908 21.1651L16.9664 21.19L16.2507 20.4916ZM21.758 13.9987L20.9954 13.3518L20.9954 13.3517L21.758 13.9987ZM21.8384 12.7313L22.6433 12.1379L22.6657 12.1683L22.6858 12.2003L21.8384 12.7313ZM21.758 12.6222L22.5206 11.9753L22.5427 12.0014L22.5629 12.0288L21.758 12.6222ZM16.2507 6.12929L17.0109 5.4795L17.0134 5.48244L16.2507 6.12929ZM15.0028 7.3967L14.194 7.98474L14.1728 7.95559L14.1537 7.92498L15.0028 7.3967ZM15.0821 7.50578L14.3195 8.15263L14.2953 8.12409L14.2733 8.09382L15.0821 7.50578ZM19.1795 12.3365L19.9421 11.6896L21.339 13.3365H19.1795V12.3365ZM4.12822 12.3365L4.12822 13.3365L4.12784 13.3365L4.12822 12.3365ZM1.65658 9.61468L0.658265 9.67277L0.657536 9.66025L0.657122 9.64771L1.65658 9.61468ZM1.64997 9.4147L0.650513 9.44773L0.649967 9.43122V9.4147H1.64997ZM0.826086 0L0.826086 1C0.930331 1 0.989511 0.949866 1.00457 0.932107L0.241955 0.285259L-0.520664 -0.36159C-0.195759 -0.744645 0.283658 -1 0.826086 -1L0.826086 0ZM0.241955 0.285259L1.00457 0.932107C1.01127 0.924215 1.00967 0.923245 1.00635 0.932697C1.00308 0.941991 1 0.956341 1 0.973934H0H-1C-1 0.498758 -0.841334 0.0164729 -0.520664 -0.36159L0.241955 0.285259ZM0 0.973934H1V9.4147H0H-1V0.973934H0ZM0 9.4147H1C1 10.4893 1.36354 11.4934 1.97239 12.2112L1.20977 12.8581L0.447154 13.5049C-0.493201 12.3963 -1 10.9231 -1 9.4147H0ZM1.20977 12.8581L1.97239 12.2112C2.57701 12.9241 3.35831 13.2844 4.13042 13.2844V14.2844V15.2844C2.71163 15.2844 1.39174 14.6186 0.447154 13.5049L1.20977 12.8581ZM4.13042 14.2844V13.2844H19.1795V14.2844V15.2844H4.13042V14.2844ZM19.1795 14.2844L19.9421 14.9312L15.8447 19.7619L15.0821 19.1151L14.3195 18.4682L18.4169 13.6375L19.1795 14.2844ZM15.0821 19.1151L15.8453 19.7612C15.8514 19.754 15.8506 19.7526 15.8479 19.7597C15.8452 19.7667 15.842 19.7784 15.841 19.7939L14.843 19.7314L13.8449 19.669C13.8718 19.2393 14.0291 18.8113 14.3189 18.469L15.0821 19.1151ZM14.843 19.7314L15.841 19.7939C15.84 19.8093 15.8416 19.8238 15.8445 19.8354C15.8473 19.8472 15.8505 19.852 15.8497 19.8508L15.0028 20.3825L14.1559 20.9142C13.9208 20.5397 13.818 20.0988 13.8449 19.669L14.843 19.7314ZM15.0028 20.3825L15.8116 19.7945L15.8909 19.9035L15.0821 20.4916L14.2733 21.0796L14.194 20.9705L15.0028 20.3825ZM15.0821 20.4916L15.8453 19.8454C15.8322 19.83 15.7833 19.7866 15.693 19.7786L15.6052 20.7748L15.5175 21.7709C15.032 21.7281 14.6119 21.4837 14.3189 21.1377L15.0821 20.4916ZM15.6052 20.7748L15.693 19.7786C15.6002 19.7704 15.5316 19.806 15.5007 19.8329L16.1582 20.5864L16.8157 21.3398C16.4664 21.6446 16.0053 21.8139 15.5175 21.7709L15.6052 20.7748ZM16.1582 20.5864L15.4426 19.8879L15.5351 19.7931L16.2507 20.4916L16.9664 21.19L16.8739 21.2848L16.1582 20.5864ZM16.2507 20.4916L15.4881 19.8447L20.9954 13.3518L21.758 13.9987L22.5206 14.6455L17.0134 21.1384L16.2507 20.4916ZM21.758 13.9987L20.9954 13.3517C20.9893 13.359 20.9901 13.3605 20.9928 13.3534C20.9955 13.3464 20.9987 13.3347 20.9997 13.3193L21.9977 13.3826L22.9957 13.4459C22.9684 13.8756 22.8107 14.3036 22.5205 14.6456L21.758 13.9987ZM21.9977 13.3826L20.9997 13.3193C21.0007 13.3038 20.9991 13.2893 20.9963 13.2777C20.9934 13.2659 20.9902 13.261 20.991 13.2622L21.8384 12.7313L22.6858 12.2003C22.9206 12.5751 23.023 13.016 22.9957 13.4459L21.9977 13.3826ZM21.8384 12.7313L21.0334 13.3246L20.953 13.2155L21.758 12.6222L22.5629 12.0288L22.6433 12.1379L21.8384 12.7313ZM21.758 12.6222L20.9954 13.269L15.4881 6.77614L16.2507 6.12929L17.0134 5.48244L22.5206 11.9753L21.758 12.6222ZM16.2507 6.12929L15.4906 6.77908C15.5051 6.79598 15.5593 6.84243 15.6565 6.84646L15.698 5.84732L15.7395 4.84818C16.2522 4.86947 16.7012 5.11729 17.0109 5.47951L16.2507 6.12929ZM15.698 5.84732L15.6565 6.84646C15.755 6.85055 15.8195 6.80757 15.8423 6.78436L15.1297 6.08275L14.4172 5.38114C14.7551 5.03796 15.2253 4.82684 15.7395 4.84818L15.698 5.84732ZM15.1297 6.08275L15.8423 6.78436C15.8524 6.77407 15.8534 6.76935 15.8511 6.77461C15.8488 6.77975 15.845 6.79067 15.8435 6.80659L14.8481 6.71043L13.8528 6.61427C13.8962 6.16435 14.084 5.71957 14.4172 5.38114L15.1297 6.08275ZM14.8481 6.71043L15.8435 6.80659C15.8419 6.82253 15.8431 6.838 15.846 6.8509C15.849 6.86391 15.8525 6.86947 15.8519 6.86843L15.0028 7.3967L14.1537 7.92498C13.9086 7.53093 13.8093 7.06442 13.8528 6.61427L14.8481 6.71043ZM15.0028 7.3967L15.8116 6.80867L15.8909 6.91775L15.0821 7.50578L14.2733 8.09382L14.194 7.98474L15.0028 7.3967ZM15.0821 7.50578L15.8447 6.85894L19.9421 11.6896L19.1795 12.3365L18.4169 12.9833L14.3195 8.15263L15.0821 7.50578ZM19.1795 12.3365V13.3365H4.12822V12.3365V11.3365H19.1795V12.3365ZM4.12822 12.3365L4.12784 13.3365C3.19192 13.3361 2.32682 12.9157 1.69706 12.2222L2.43737 11.5499L3.17768 10.8777C3.46547 11.1946 3.80898 11.3364 4.1286 11.3365L4.12822 12.3365ZM2.43737 11.5499L1.69706 12.2222C1.07138 11.5332 0.71332 10.6189 0.658265 9.67277L1.65658 9.61468L2.65489 9.55659C2.68577 10.0873 2.88581 10.5563 3.17768 10.8777L2.43737 11.5499ZM1.65658 9.61468L0.657122 9.64771L0.650513 9.44773L1.64997 9.4147L2.64942 9.38167L2.65603 9.58165L1.65658 9.61468ZM1.64997 9.4147H0.649967V0.973934H1.64997H2.64997V9.4147H1.64997ZM1.64997 0.973934H0.649967C0.649967 0.956341 0.646885 0.941991 0.64362 0.932697C0.640299 0.923245 0.6387 0.924215 0.645394 0.932107L1.40801 0.285259L2.17063 -0.36159C2.4913 0.0164729 2.64997 0.498758 2.64997 0.973934H1.64997ZM1.40801 0.285259L0.645394 0.932107C0.660456 0.949866 0.719636 1 0.823881 1V0V-1C1.36631 -1 1.84573 -0.744645 2.17063 -0.36159L1.40801 0.285259Z" fill="black" mask="url(#path-1-inside-1_91_816)"/>
</svg>
